<svg width="36" height="32" viewBox="0 0 36 32" fill="none" xmlns="http://www.w3.org/2000/svg">
<path fill-rule="evenodd" clip-rule="evenodd" d="M19.4568 2.63101L33.8813 27.615C34.5564 28.7843 33.7125 30.246 32.3622 30.246H3.51324C2.16301 30.246 1.31911 28.7843 1.99423 27.615L16.4187 2.631C17.0938 1.46167 18.7816 1.46167 19.4568 2.63101ZM14.8997 1.754C16.25 -0.584671 19.6255 -0.584666 20.9758 1.75401L35.4003 26.738C36.7505 29.0767 35.0627 32 32.3622 32H3.51324C0.812771 32 -0.875015 29.0767 0.475218 26.738L14.8997 1.754ZM17.9379 10.872C18.3521 10.872 18.6879 11.2078 18.6879 11.622V20.0938C18.6879 20.508 18.3521 20.8438 17.9379 20.8438C17.5237 20.8438 17.1879 20.508 17.1879 20.0938V11.622C17.1879 11.2078 17.5237 10.872 17.9379 10.872ZM16.9284 25.4262C16.9284 24.8739 17.3762 24.4262 17.9284 24.4262H17.9442C18.4965 24.4262 18.9442 24.8739 18.9442 25.4262C18.9442 25.9785 18.4965 26.4262 17.9442 26.4262H17.9284C17.3762 26.4262 16.9284 25.9785 16.9284 25.4262Z" fill="white"/>
</svg>
