<svg width="22" height="22" viewBox="0 0 22 22" fill="none" xmlns="http://www.w3.org/2000/svg">
<path d="M5.76 21H16.24C19 21 20.1 19.31 20.23 17.25L20.75 8.99C20.89 6.83 19.17 5 17 5C16.39 5 15.83 4.65 15.55 4.11L14.83 2.66C14.37 1.75 13.17 1 12.15 1H9.86C8.83 1 7.63 1.75 7.17 2.66L6.45 4.11C6.17 4.65 5.61 5 5 5C2.83 5 1.11 6.83 1.25 8.99L1.77 17.25C1.89 19.31 3 21 5.76 21Z" stroke="white" stroke-width="1.5" stroke-linecap="round" stroke-linejoin="round"/>
<path d="M9.5 7H12.5" stroke="white" stroke-width="1.5" stroke-linecap="round" stroke-linejoin="round"/>
<path d="M11 17C12.79 17 14.25 15.54 14.25 13.75C14.25 11.96 12.79 10.5 11 10.5C9.21 10.5 7.75 11.96 7.75 13.75C7.75 15.54 9.21 17 11 17Z" stroke="white" stroke-width="1.5" stroke-linecap="round" stroke-linejoin="round"/>
</svg>
