<svg width="25" height="25" viewBox="0 0 25 25" fill="none" xmlns="http://www.w3.org/2000/svg">
<path d="M21.22 6.56887C17.89 6.23887 14.54 6.06887 11.2 6.06887C9.21997 6.06887 7.23997 6.16887 5.25997 6.36887L3.21997 6.56887" stroke="white" stroke-width="1.5" stroke-linecap="round" stroke-linejoin="round"/>
<path d="M8.71997 5.55887L8.93997 4.24887C9.09997 3.29887 9.21997 2.58887 10.91 2.58887H13.53C15.22 2.58887 15.35 3.33887 15.5 4.25887L15.72 5.55887" stroke="white" stroke-width="1.5" stroke-linecap="round" stroke-linejoin="round"/>
<path d="M19.07 9.72887L18.42 19.7989C18.31 21.3689 18.22 22.5889 15.43 22.5889H9.00999C6.22 22.5889 6.13 21.3689 6.02 19.7989L5.37 9.72887" stroke="white" stroke-width="1.5" stroke-linecap="round" stroke-linejoin="round"/>
<path d="M10.55 17.0889H13.88" stroke="white" stroke-width="1.5" stroke-linecap="round" stroke-linejoin="round"/>
<path d="M9.71997 13.0889H14.72" stroke="white" stroke-width="1.5" stroke-linecap="round" stroke-linejoin="round"/>
</svg>
