<svg width="22" height="22" viewBox="0 0 22 22" fill="none" xmlns="http://www.w3.org/2000/svg">
<path d="M8.19997 13.78L10.78 16.04C10.9 16.15 11.09 16.15 11.21 16.04L13.79 13.78C14.46 13.19 14.55 12.19 13.99 11.49C13.43 10.79 12.41 10.66 11.7 11.2L11 11.74L10.29 11.21C9.56997 10.67 8.55997 10.8 7.99997 11.5C7.43997 12.19 7.52997 13.2 8.19997 13.78Z" stroke="#1E1F21" stroke-width="1.5" stroke-linecap="round" stroke-linejoin="round"/>
<path d="M21 10V16C21 20 20 21 16 21H6C2 21 1 20 1 16V6C1 2 2 1 6 1H7.5C9 1 9.33 1.44 9.9 2.2L11.4 4.2C11.78 4.7 12 5 13 5H16C20 5 21 6 21 10Z" stroke="#1E1F21" stroke-width="1.5" stroke-miterlimit="10"/>
</svg>
