<svg width="23" height="23" viewBox="0 0 23 23" fill="none" xmlns="http://www.w3.org/2000/svg">
<rect width="22.5" height="22.5" rx="11.25" fill="#FFD663"/>
<path fill-rule="evenodd" clip-rule="evenodd" d="M8.01279 13.5385C8.40575 13.4075 8.83049 13.6199 8.96147 14.0128C9.26327 14.9182 10.0766 15.75 11.25 15.75C12.4233 15.75 13.2366 14.9182 13.5384 14.0128C13.6694 13.6199 14.0942 13.4075 14.4871 13.5385C14.8801 13.6695 15.0925 14.0942 14.9615 14.4872C14.5133 15.8318 13.2345 17.25 11.25 17.25C9.26539 17.25 7.98665 15.8318 7.53845 14.4872C7.40746 14.0942 7.61983 13.6695 8.01279 13.5385Z" fill="#1E1F21"/>
<circle cx="7.5" cy="9" r="1.5" fill="#1E1F21"/>
<circle cx="15" cy="9" r="1.5" fill="#1E1F21"/>
</svg>
