<svg width="18" height="22" viewBox="0 0 18 22" fill="none" xmlns="http://www.w3.org/2000/svg">
<path d="M9 14.5C11.21 14.5 13 12.71 13 10.5V5C13 2.79 11.21 1 9 1C6.79 1 5 2.79 5 5V10.5C5 12.71 6.79 14.5 9 14.5Z" stroke="white" stroke-width="1.5" stroke-linecap="round" stroke-linejoin="round"/>
<path d="M1.34998 8.65V10.35C1.34998 14.57 4.77998 18 8.99998 18C13.22 18 16.65 14.57 16.65 10.35V8.65" stroke="white" stroke-width="1.5" stroke-linecap="round" stroke-linejoin="round"/>
<path d="M7.60999 5.43C8.50999 5.1 9.48999 5.1 10.39 5.43" stroke="white" stroke-width="1.5" stroke-linecap="round" stroke-linejoin="round"/>
<path d="M8.20001 7.55C8.73001 7.41 9.28001 7.41 9.81001 7.55" stroke="white" stroke-width="1.5" stroke-linecap="round" stroke-linejoin="round"/>
<path d="M9 18V21" stroke="white" stroke-width="1.5" stroke-linecap="round" stroke-linejoin="round"/>
</svg>
