<svg width="22" height="22" viewBox="0 0 22 22" fill="none" xmlns="http://www.w3.org/2000/svg">
<path d="M11.2 10.8L9.78997 12.21C9.00997 12.99 9.00997 14.26 9.78997 15.04C10.57 15.82 11.84 15.82 12.62 15.04L14.84 12.82C16.4 11.26 16.4 8.72999 14.84 7.15999C13.28 5.59999 10.75 5.59999 9.17999 7.15999L6.76 9.57997C5.42 10.92 5.42 13.09 6.76 14.43" stroke="#999797" stroke-width="1.5" stroke-linecap="round" stroke-linejoin="round"/>
<path d="M8 21H14C19 21 21 19 21 14V8C21 3 19 1 14 1H8C3 1 1 3 1 8V14C1 19 3 21 8 21Z" stroke="#999797" stroke-width="1.5" stroke-linecap="round" stroke-linejoin="round"/>
</svg>
