<svg width="22" height="19" viewBox="0 0 22 19" fill="none" xmlns="http://www.w3.org/2000/svg">
<path d="M11.53 17.84H5.21C2.05 17.84 1 15.74 1 13.63V5.21C1 2.05 2.05 1 5.21 1H11.53C14.69 1 15.74 2.05 15.74 5.21V13.63C15.74 16.79 14.68 17.84 11.53 17.84Z" stroke="#1E1F21" stroke-width="1.5" stroke-linecap="round" stroke-linejoin="round"/>
<path d="M18.52 14.52L15.74 12.57V6.25999L18.52 4.30999C19.88 3.35999 21 3.93999 21 5.60999V13.23C21 14.9 19.88 15.48 18.52 14.52Z" stroke="#1E1F21" stroke-width="1.5" stroke-linecap="round" stroke-linejoin="round"/>
<path d="M10.5 8.41998C11.3284 8.41998 12 7.74841 12 6.91998C12 6.09156 11.3284 5.41998 10.5 5.41998C9.67157 5.41998 9 6.09156 9 6.91998C9 7.74841 9.67157 8.41998 10.5 8.41998Z" stroke="#1E1F21" stroke-width="1.5" stroke-linecap="round" stroke-linejoin="round"/>
</svg>
